<svg viewBox="0 0 64.016 52" xml:space="preserve" xmlns="http://www.w3.org/2000/svg" enable-background="new 0 0 64.016 52"><path d="M26 26C13.811 26 15.563 40 6 40c-3.813 0-6-2-6-2s3.119 14 18 14c11.102 0 20-4.579 20-14 0-6.148-4.779-12-12-12z" fill="#e6e6e6" class="fill-cccccc"></path><path d="M10.016 46c7.052 0 8-6 8-6-2.149 2.179-6 2-6 2 1.651-1.651 1.97-6.03 2.031-7.514C12.117 37.425 10.098 40 6 40c-3.813 0-6-2-6-2s2.563 11.331 13.945 13.583c2.502-1.005 4.07-3.583 4.07-3.583-4.949.997-7.999-2-7.999-2z" fill="#93a13b" class="fill-88c057"></path><path d="m34.016 18.001-6 9.999 8 8 10-6z" fill="#6e008f" class="fill-6d5778"></path><path d="M50.016 0c-6 0-16 18.001-16 18.001l12 11.999s18-10 18-16c0-2-12-14-14-14z" fill="#be5bf0" class="fill-9b7cab"></path></svg>